<?xml version="1.0" encoding="UTF-8"?><svg xmlns="http://www.w3.org/2000/svg" xmlns:xlink="http://www.w3.org/1999/xlink" fill-opacity="1" color-rendering="auto" color-interpolation="auto" text-rendering="auto" stroke="black" stroke-linecap="square" width="2027" stroke-miterlimit="10" shape-rendering="auto" stroke-opacity="1" fill="black" stroke-dasharray="none" font-weight="normal" stroke-width="1" height="1479" font-family="'Dialog'" font-style="normal" stroke-linejoin="miter" font-size="12px" stroke-dashoffset="0" image-rendering="auto">
  <!--Generated by ySVG 2.5-->
  <defs id="genericDefs"/>
  <g>
    <defs id="defs1">
      <clipPath clipPathUnits="userSpaceOnUse" id="clipPath1">
        <path d="M0 0 L2027 0 L2027 1479 L0 1479 L0 0 Z"/>
      </clipPath>
      <clipPath clipPathUnits="userSpaceOnUse" id="clipPath2">
        <path d="M-302 -101 L1725 -101 L1725 1378 L-302 1378 L-302 -101 Z"/>
      </clipPath>
    </defs>
    <g fill="white" text-rendering="geometricPrecision" shape-rendering="geometricPrecision" transform="translate(302,101)" stroke="white">
      <rect x="-302" width="2027" height="1479" y="-101" clip-path="url(#clipPath2)" stroke="none"/>
    </g>
    <g fill="rgb(204,255,204)" text-rendering="geometricPrecision" shape-rendering="geometricPrecision" transform="matrix(1,0,0,1,302,101)" stroke="rgb(204,255,204)">
      <rect x="538.7344" width="1170.918" height="1448.457" y="-85.8633" clip-path="url(#clipPath2)" stroke="none"/>
    </g>
    <g text-rendering="geometricPrecision" stroke-miterlimit="1.45" shape-rendering="geometricPrecision" transform="matrix(1,0,0,1,302,101)" stroke-linecap="butt">
      <rect fill="none" x="538.7344" width="1170.918" height="1448.457" y="-85.8633" clip-path="url(#clipPath2)"/>
    </g>
    <g fill="rgb(204,255,255)" text-rendering="geometricPrecision" shape-rendering="geometricPrecision" transform="matrix(1,0,0,1,302,101)" stroke="rgb(204,255,255)">
      <rect x="-286.2187" width="802.2656" height="1448.457" y="-85.8633" clip-path="url(#clipPath2)" stroke="none"/>
    </g>
    <g text-rendering="geometricPrecision" stroke-miterlimit="1.45" shape-rendering="geometricPrecision" transform="matrix(1,0,0,1,302,101)" stroke-linecap="butt">
      <rect fill="none" x="-286.2187" width="802.2656" height="1448.457" y="-85.8633" clip-path="url(#clipPath2)"/>
    </g>
    <g fill="rgb(255,204,0)" text-rendering="geometricPrecision" shape-rendering="geometricPrecision" transform="matrix(1,0,0,1,302,101)" stroke="rgb(255,204,0)">
      <path d="M790 304 L882.5 263.5 L975 304 L882.5 344.5 Z" fill-rule="evenodd" clip-path="url(#clipPath2)" stroke="none"/>
    </g>
    <g text-rendering="geometricPrecision" stroke-miterlimit="1.45" shape-rendering="geometricPrecision" transform="matrix(1,0,0,1,302,101)" stroke-linecap="butt">
      <path fill="none" d="M790 304 L882.5 263.5 L975 304 L882.5 344.5 Z" fill-rule="evenodd" clip-path="url(#clipPath2)"/>
      <text x="866.8203" xml:space="preserve" y="308.7139" clip-path="url(#clipPath2)" font-family="sans-serif" stroke="none">Pfad?</text>
    </g>
    <g fill="rgb(255,204,0)" text-rendering="geometricPrecision" shape-rendering="geometricPrecision" transform="matrix(1,0,0,1,302,101)" stroke="rgb(255,204,0)">
      <rect x="-123.75" y="-14.75" clip-path="url(#clipPath2)" width="150" rx="4" ry="4" height="50" stroke="none"/>
    </g>
    <g text-rendering="geometricPrecision" stroke-miterlimit="1.45" shape-rendering="geometricPrecision" transform="matrix(1,0,0,1,302,101)" stroke-linecap="butt">
      <rect x="-123.75" y="-14.75" clip-path="url(#clipPath2)" fill="none" width="150" rx="4" ry="4" height="50"/>
      <text x="-98.4375" xml:space="preserve" y="7.6133" clip-path="url(#clipPath2)" font-family="sans-serif" stroke="none">Aufruf der Website</text>
      <text x="-91.4414" xml:space="preserve" y="22.3145" clip-path="url(#clipPath2)" font-family="sans-serif" stroke="none">(localhost:5000)</text>
    </g>
    <g fill="rgb(255,204,0)" text-rendering="geometricPrecision" shape-rendering="geometricPrecision" transform="matrix(1,0,0,1,302,101)" stroke="rgb(255,204,0)">
      <rect x="1223.5" width="157" height="60" y="274" clip-path="url(#clipPath2)" stroke="none"/>
    </g>
    <g text-rendering="geometricPrecision" stroke-miterlimit="1.45" shape-rendering="geometricPrecision" transform="matrix(1,0,0,1,302,101)" stroke-linecap="butt">
      <rect fill="none" x="1223.5" width="157" height="60" y="274" clip-path="url(#clipPath2)"/>
      <text x="1257.3047" xml:space="preserve" y="308.7139" clip-path="url(#clipPath2)" font-family="sans-serif" stroke="none">generische Seite</text>
    </g>
    <g fill="rgb(255,204,0)" text-rendering="geometricPrecision" shape-rendering="geometricPrecision" transform="matrix(1,0,0,1,302,101)" stroke="rgb(255,204,0)">
      <rect x="1223.5" width="157" height="60" y="454" clip-path="url(#clipPath2)" stroke="none"/>
    </g>
    <g text-rendering="geometricPrecision" stroke-miterlimit="1.45" shape-rendering="geometricPrecision" transform="matrix(1,0,0,1,302,101)" stroke-linecap="butt">
      <rect fill="none" x="1223.5" width="157" height="60" y="454" clip-path="url(#clipPath2)"/>
      <text x="1285.6523" xml:space="preserve" y="488.7139" clip-path="url(#clipPath2)" font-family="sans-serif" stroke="none">Login </text>
    </g>
    <g fill="rgb(255,204,0)" text-rendering="geometricPrecision" shape-rendering="geometricPrecision" transform="matrix(1,0,0,1,302,101)" stroke="rgb(255,204,0)">
      <rect x="1223.5" width="157" height="60" y="364" clip-path="url(#clipPath2)" stroke="none"/>
    </g>
    <g text-rendering="geometricPrecision" stroke-miterlimit="1.45" shape-rendering="geometricPrecision" transform="matrix(1,0,0,1,302,101)" stroke-linecap="butt">
      <rect fill="none" x="1223.5" width="157" height="60" y="364" clip-path="url(#clipPath2)"/>
      <text x="1266.3164" xml:space="preserve" y="398.7139" clip-path="url(#clipPath2)" font-family="sans-serif" stroke="none">Registrierung</text>
    </g>
    <g fill="rgb(255,204,0)" text-rendering="geometricPrecision" shape-rendering="geometricPrecision" transform="matrix(1,0,0,1,302,101)" stroke="rgb(255,204,0)">
      <rect x="804" width="157" height="60" y="454" clip-path="url(#clipPath2)" stroke="none"/>
    </g>
    <g text-rendering="geometricPrecision" stroke-miterlimit="1.45" shape-rendering="geometricPrecision" transform="matrix(1,0,0,1,302,101)" stroke-linecap="butt">
      <rect fill="none" x="804" width="157" height="60" y="454" clip-path="url(#clipPath2)"/>
      <text x="852.4912" xml:space="preserve" y="488.7139" clip-path="url(#clipPath2)" font-family="sans-serif" stroke="none">Wiki Suche</text>
    </g>
    <g fill="rgb(255,204,0)" text-rendering="geometricPrecision" shape-rendering="geometricPrecision" transform="matrix(1,0,0,1,302,101)" stroke="rgb(255,204,0)">
      <path d="M790 664 L882.5 623.5 L975 664 L882.5 704.5 Z" fill-rule="evenodd" clip-path="url(#clipPath2)" stroke="none"/>
    </g>
    <g text-rendering="geometricPrecision" stroke-miterlimit="1.45" shape-rendering="geometricPrecision" transform="matrix(1,0,0,1,302,101)" stroke-linecap="butt">
      <path fill="none" d="M790 664 L882.5 623.5 L975 664 L882.5 704.5 Z" fill-rule="evenodd" clip-path="url(#clipPath2)"/>
      <text x="847.8066" xml:space="preserve" y="668.7139" clip-path="url(#clipPath2)" font-family="sans-serif" stroke="none">angemeldet?</text>
    </g>
    <g fill="rgb(255,204,0)" text-rendering="geometricPrecision" shape-rendering="geometricPrecision" transform="matrix(1,0,0,1,302,101)" stroke="rgb(255,204,0)">
      <rect x="236.5" width="157" height="60" y="634" clip-path="url(#clipPath2)" stroke="none"/>
    </g>
    <g text-rendering="geometricPrecision" stroke-miterlimit="1.45" shape-rendering="geometricPrecision" transform="matrix(1,0,0,1,302,101)" stroke-linecap="butt">
      <rect fill="none" x="236.5" width="157" height="60" y="634" clip-path="url(#clipPath2)"/>
      <text x="284.9912" xml:space="preserve" y="668.7139" clip-path="url(#clipPath2)" font-family="sans-serif" stroke="none">Wiki Suche</text>
    </g>
    <g fill="rgb(255,204,0)" text-rendering="geometricPrecision" shape-rendering="geometricPrecision" transform="matrix(1,0,0,1,302,101)" stroke="rgb(255,204,0)">
      <rect x="236.5" width="157" height="60" y="522" clip-path="url(#clipPath2)" stroke="none"/>
    </g>
    <g text-rendering="geometricPrecision" stroke-miterlimit="1.45" shape-rendering="geometricPrecision" transform="matrix(1,0,0,1,302,101)" stroke-linecap="butt">
      <rect fill="none" x="236.5" width="157" height="60" y="522" clip-path="url(#clipPath2)"/>
      <text x="270.3047" xml:space="preserve" y="556.7139" clip-path="url(#clipPath2)" font-family="sans-serif" stroke="none">generische Seite</text>
    </g>
    <g fill="rgb(255,204,0)" text-rendering="geometricPrecision" shape-rendering="geometricPrecision" transform="matrix(1,0,0,1,302,101)" stroke="rgb(255,204,0)">
      <rect x="55.75" width="157" height="60" y="634" clip-path="url(#clipPath2)" stroke="none"/>
    </g>
    <g text-rendering="geometricPrecision" stroke-miterlimit="1.45" shape-rendering="geometricPrecision" transform="matrix(1,0,0,1,302,101)" stroke-linecap="butt">
      <rect fill="none" x="55.75" width="157" height="60" y="634" clip-path="url(#clipPath2)"/>
      <text x="98.9004" xml:space="preserve" y="661.3633" clip-path="url(#clipPath2)" font-family="sans-serif" stroke="none">Nutzeraktion:</text>
      <text x="80.2119" xml:space="preserve" y="676.0645" clip-path="url(#clipPath2)" font-family="sans-serif" stroke="none">Suchbegriff Eingabe</text>
    </g>
    <g fill="rgb(255,204,0)" text-rendering="geometricPrecision" shape-rendering="geometricPrecision" transform="matrix(1,0,0,1,302,101)" stroke="rgb(255,204,0)">
      <rect x="1223.5" width="157" height="60" y="700.5625" clip-path="url(#clipPath2)" stroke="none"/>
    </g>
    <g text-rendering="geometricPrecision" stroke-miterlimit="1.45" shape-rendering="geometricPrecision" transform="matrix(1,0,0,1,302,101)" stroke-linecap="butt">
      <rect fill="none" x="1223.5" width="157" height="60" y="700.5625" clip-path="url(#clipPath2)"/>
      <text x="1262.9795" xml:space="preserve" y="720.5752" clip-path="url(#clipPath2)" font-family="sans-serif" stroke="none">Server sendet </text>
      <text x="1270.9775" xml:space="preserve" y="735.2764" clip-path="url(#clipPath2)" font-family="sans-serif" stroke="none">Anfrage an </text>
      <text x="1275.9902" xml:space="preserve" y="749.9775" clip-path="url(#clipPath2)" font-family="sans-serif" stroke="none">Wikipedia</text>
    </g>
    <g fill="rgb(255,204,0)" text-rendering="geometricPrecision" shape-rendering="geometricPrecision" transform="matrix(1,0,0,1,302,101)" stroke="rgb(255,204,0)">
      <rect x="55.75" width="157" height="60" y="522" clip-path="url(#clipPath2)" stroke="none"/>
    </g>
    <g text-rendering="geometricPrecision" stroke-miterlimit="1.45" shape-rendering="geometricPrecision" transform="matrix(1,0,0,1,302,101)" stroke-linecap="butt">
      <rect fill="none" x="55.75" width="157" height="60" y="522" clip-path="url(#clipPath2)"/>
      <text x="58.5439" xml:space="preserve" y="556.7139" clip-path="url(#clipPath2)" font-family="sans-serif" stroke="none">Nutzeraktion: Seitenwechsel</text>
    </g>
    <g fill="rgb(255,204,0)" text-rendering="geometricPrecision" shape-rendering="geometricPrecision" transform="matrix(1,0,0,1,302,101)" stroke="rgb(255,204,0)">
      <rect x="1223.5" width="157" height="60" y="790.5625" clip-path="url(#clipPath2)" stroke="none"/>
    </g>
    <g text-rendering="geometricPrecision" stroke-miterlimit="1.45" shape-rendering="geometricPrecision" transform="matrix(1,0,0,1,302,101)" stroke-linecap="butt">
      <rect fill="none" x="1223.5" width="157" height="60" y="790.5625" clip-path="url(#clipPath2)"/>
      <text x="1249.9688" xml:space="preserve" y="825.2764" clip-path="url(#clipPath2)" font-family="sans-serif" stroke="none">Antwort aufbereiten</text>
    </g>
    <g fill="rgb(255,204,0)" text-rendering="geometricPrecision" shape-rendering="geometricPrecision" transform="matrix(1,0,0,1,302,101)" stroke="rgb(255,204,0)">
      <rect x="236.5" width="157" height="60" y="790.5625" clip-path="url(#clipPath2)" stroke="none"/>
    </g>
    <g text-rendering="geometricPrecision" stroke-miterlimit="1.45" shape-rendering="geometricPrecision" transform="matrix(1,0,0,1,302,101)" stroke-linecap="butt">
      <rect fill="none" x="236.5" width="157" height="60" y="790.5625" clip-path="url(#clipPath2)"/>
      <text x="249.6504" xml:space="preserve" y="825.2764" clip-path="url(#clipPath2)" font-family="sans-serif" stroke="none">Wiki Suche - mit Ergebis</text>
    </g>
    <g fill="rgb(255,204,0)" text-rendering="geometricPrecision" shape-rendering="geometricPrecision" transform="matrix(1,0,0,1,302,101)" stroke="rgb(255,204,0)">
      <path d="M-141.25 820.5625 L-48.75 780.0625 L43.75 820.5625 L-48.75 861.0625 Z" fill-rule="evenodd" clip-path="url(#clipPath2)" stroke="none"/>
    </g>
    <g text-rendering="geometricPrecision" stroke-miterlimit="1.45" shape-rendering="geometricPrecision" transform="matrix(1,0,0,1,302,101)" stroke-linecap="butt">
      <path fill="none" d="M-141.25 820.5625 L-48.75 780.0625 L43.75 820.5625 L-48.75 861.0625 Z" fill-rule="evenodd" clip-path="url(#clipPath2)"/>
      <text x="-108.1113" xml:space="preserve" y="825.2764" clip-path="url(#clipPath2)" font-family="sans-serif" stroke="none">redirect / neuer Begriff</text>
    </g>
    <g fill="rgb(255,204,0)" text-rendering="geometricPrecision" shape-rendering="geometricPrecision" transform="matrix(1,0,0,1,302,101)" stroke="rgb(255,204,0)">
      <rect x="236.5" width="157" height="60" y="932.375" clip-path="url(#clipPath2)" stroke="none"/>
    </g>
    <g text-rendering="geometricPrecision" stroke-miterlimit="1.45" shape-rendering="geometricPrecision" transform="matrix(1,0,0,1,302,101)" stroke-linecap="butt">
      <rect fill="none" x="236.5" width="157" height="60" y="932.375" clip-path="url(#clipPath2)"/>
      <text x="258.29" xml:space="preserve" y="967.0889" clip-path="url(#clipPath2)" font-family="sans-serif" stroke="none">Login Seite Anzeigen</text>
    </g>
    <g fill="rgb(255,204,0)" text-rendering="geometricPrecision" shape-rendering="geometricPrecision" transform="matrix(1,0,0,1,302,101)" stroke="rgb(255,204,0)">
      <rect x="49.5" width="157" height="60" y="932.375" clip-path="url(#clipPath2)" stroke="none"/>
    </g>
    <g text-rendering="geometricPrecision" stroke-miterlimit="1.45" shape-rendering="geometricPrecision" transform="matrix(1,0,0,1,302,101)" stroke-linecap="butt">
      <rect fill="none" x="49.5" width="157" height="60" y="932.375" clip-path="url(#clipPath2)"/>
      <text x="92.6504" xml:space="preserve" y="952.3877" clip-path="url(#clipPath2)" font-family="sans-serif" stroke="none">Nutzeraktion:</text>
      <text x="76.6455" xml:space="preserve" y="967.0889" clip-path="url(#clipPath2)" font-family="sans-serif" stroke="none">Formular ausfüllen </text>
      <text x="89.9639" xml:space="preserve" y="981.79" clip-path="url(#clipPath2)" font-family="sans-serif" stroke="none">und absenden</text>
    </g>
    <g fill="rgb(255,204,0)" text-rendering="geometricPrecision" shape-rendering="geometricPrecision" transform="matrix(1,0,0,1,302,101)" stroke="rgb(255,204,0)">
      <rect x="818" width="157" height="60" y="1022.375" clip-path="url(#clipPath2)" stroke="none"/>
    </g>
    <g text-rendering="geometricPrecision" stroke-miterlimit="1.45" shape-rendering="geometricPrecision" transform="matrix(1,0,0,1,302,101)" stroke-linecap="butt">
      <rect fill="none" x="818" width="157" height="60" y="1022.375" clip-path="url(#clipPath2)"/>
      <text x="830.7842" xml:space="preserve" y="1057.0889" clip-path="url(#clipPath2)" font-family="sans-serif" stroke="none">Login Eingabe validieren</text>
    </g>
    <g fill="rgb(255,204,0)" text-rendering="geometricPrecision" shape-rendering="geometricPrecision" transform="matrix(1,0,0,1,302,101)" stroke="rgb(255,204,0)">
      <path d="M1092 1052.375 L1184.5 1011.875 L1277 1052.375 L1184.5 1092.875 Z" fill-rule="evenodd" clip-path="url(#clipPath2)" stroke="none"/>
    </g>
    <g text-rendering="geometricPrecision" stroke-miterlimit="1.45" shape-rendering="geometricPrecision" transform="matrix(1,0,0,1,302,101)" stroke-linecap="butt">
      <path fill="none" d="M1092 1052.375 L1184.5 1011.875 L1277 1052.375 L1184.5 1092.875 Z" fill-rule="evenodd" clip-path="url(#clipPath2)"/>
      <text x="1141.7998" xml:space="preserve" y="1057.0889" clip-path="url(#clipPath2)" font-family="sans-serif" stroke="none">Eingabe valide?</text>
    </g>
    <g fill="rgb(255,204,0)" text-rendering="geometricPrecision" shape-rendering="geometricPrecision" transform="matrix(1,0,0,1,302,101)" stroke="rgb(255,204,0)">
      <rect x="236.5" width="157" height="60" y="1126.5" clip-path="url(#clipPath2)" stroke="none"/>
    </g>
    <g text-rendering="geometricPrecision" stroke-miterlimit="1.45" shape-rendering="geometricPrecision" transform="matrix(1,0,0,1,302,101)" stroke-linecap="butt">
      <rect fill="none" x="236.5" width="157" height="60" y="1126.5" clip-path="url(#clipPath2)"/>
      <text x="237.2871" xml:space="preserve" y="1161.2139" clip-path="url(#clipPath2)" font-family="sans-serif" stroke="none">Registrierung Seite Anzeigen</text>
    </g>
    <g fill="rgb(255,204,0)" text-rendering="geometricPrecision" shape-rendering="geometricPrecision" transform="matrix(1,0,0,1,302,101)" stroke="rgb(255,204,0)">
      <rect x="49.5" width="157" height="60" y="1126.5" clip-path="url(#clipPath2)" stroke="none"/>
    </g>
    <g text-rendering="geometricPrecision" stroke-miterlimit="1.45" shape-rendering="geometricPrecision" transform="matrix(1,0,0,1,302,101)" stroke-linecap="butt">
      <rect fill="none" x="49.5" width="157" height="60" y="1126.5" clip-path="url(#clipPath2)"/>
      <text x="92.6504" xml:space="preserve" y="1146.5127" clip-path="url(#clipPath2)" font-family="sans-serif" stroke="none">Nutzeraktion:</text>
      <text x="76.6455" xml:space="preserve" y="1161.2139" clip-path="url(#clipPath2)" font-family="sans-serif" stroke="none">Formular ausfüllen </text>
      <text x="89.9639" xml:space="preserve" y="1175.915" clip-path="url(#clipPath2)" font-family="sans-serif" stroke="none">und absenden</text>
    </g>
    <g fill="rgb(255,204,0)" text-rendering="geometricPrecision" shape-rendering="geometricPrecision" transform="matrix(1,0,0,1,302,101)" stroke="rgb(255,204,0)">
      <rect x="818" width="157" height="60" y="1216.5" clip-path="url(#clipPath2)" stroke="none"/>
    </g>
    <g text-rendering="geometricPrecision" stroke-miterlimit="1.45" shape-rendering="geometricPrecision" transform="matrix(1,0,0,1,302,101)" stroke-linecap="butt">
      <rect fill="none" x="818" width="157" height="60" y="1216.5" clip-path="url(#clipPath2)"/>
      <text x="859.1494" xml:space="preserve" y="1243.8633" clip-path="url(#clipPath2)" font-family="sans-serif" stroke="none">Registrierung </text>
      <text x="847.1318" xml:space="preserve" y="1258.5645" clip-path="url(#clipPath2)" font-family="sans-serif" stroke="none">Eingabe validieren</text>
    </g>
    <g fill="rgb(255,204,0)" text-rendering="geometricPrecision" shape-rendering="geometricPrecision" transform="matrix(1,0,0,1,302,101)" stroke="rgb(255,204,0)">
      <path d="M1092 1246.5 L1184.5 1206 L1277 1246.5 L1184.5 1287 Z" fill-rule="evenodd" clip-path="url(#clipPath2)" stroke="none"/>
    </g>
    <g text-rendering="geometricPrecision" stroke-miterlimit="1.45" shape-rendering="geometricPrecision" transform="matrix(1,0,0,1,302,101)" stroke-linecap="butt">
      <path fill="none" d="M1092 1246.5 L1184.5 1206 L1277 1246.5 L1184.5 1287 Z" fill-rule="evenodd" clip-path="url(#clipPath2)"/>
      <text x="1141.7998" xml:space="preserve" y="1251.2139" clip-path="url(#clipPath2)" font-family="sans-serif" stroke="none">Eingabe valide?</text>
    </g>
    <g fill="rgb(255,204,0)" text-rendering="geometricPrecision" shape-rendering="geometricPrecision" transform="matrix(1,0,0,1,302,101)" stroke="rgb(255,204,0)">
      <rect x="1371" width="157" height="60" y="1216.5" clip-path="url(#clipPath2)" stroke="none"/>
    </g>
    <g text-rendering="geometricPrecision" stroke-miterlimit="1.45" shape-rendering="geometricPrecision" transform="matrix(1,0,0,1,302,101)" stroke-linecap="butt">
      <rect fill="none" x="1371" width="157" height="60" y="1216.5" clip-path="url(#clipPath2)"/>
      <text x="1411.8066" xml:space="preserve" y="1251.2139" clip-path="url(#clipPath2)" font-family="sans-serif" stroke="none">Nuter anlegen</text>
      <rect x="-236.6311" y="600.125" clip-path="url(#clipPath2)" fill="none" width="1636.25" height="278.4375" stroke="rgb(51,153,102)" stroke-width="3"/>
      <rect x="-236.6311" y="888.1875" clip-path="url(#clipPath2)" fill="none" width="1636.25" height="212.5" stroke="fuchsia" stroke-width="3"/>
      <rect x="-236.6311" y="1112.375" clip-path="url(#clipPath2)" fill="none" width="1894.0625" height="195.3125" stroke="rgb(0,204,255)" stroke-width="3"/>
      <text x="-262.3516" font-size="40px" y="-29.6504" clip-path="url(#clipPath2)" font-family="sans-serif" stroke="none" xml:space="preserve">Client</text>
      <text x="554.8281" font-size="40px" y="-29.6504" clip-path="url(#clipPath2)" font-family="sans-serif" stroke="none" xml:space="preserve">Server</text>
      <text x="-223.3645" font-size="20px" y="867.4346" clip-path="url(#clipPath2)" font-family="sans-serif" stroke="none" xml:space="preserve">Wiki Suche</text>
      <text x="-221.1038" font-size="20px" y="1289.9502" clip-path="url(#clipPath2)" font-family="sans-serif" stroke="none" xml:space="preserve">Registrierung</text>
      <text x="-213.4427" font-size="20px" y="1088.6143" clip-path="url(#clipPath2)" font-family="sans-serif" stroke="none" xml:space="preserve">Login</text>
      <path fill="none" d="M26.249 10.25 L882.5 10.25 L882.5 248.5161" clip-path="url(#clipPath2)"/>
      <path fill="white" d="M882.5 263.5161 L888.5 247.5161 L876.5 247.5161 Z" clip-path="url(#clipPath2)" stroke="none"/>
      <path fill="none" d="M882.5 263.5161 L888.5 247.5161 L876.5 247.5161 Z" clip-path="url(#clipPath2)"/>
      <path fill="none" d="M975.0082 304 L1208.5 304" clip-path="url(#clipPath2)"/>
      <path fill="white" d="M1223.5 304 L1207.5 298 L1207.5 310 Z" clip-path="url(#clipPath2)" stroke="none"/>
      <path fill="none" d="M1223.5 304 L1207.5 298 L1207.5 310 Z" clip-path="url(#clipPath2)"/>
      <path fill="none" d="M975.0116 304 L1066 304 L1066 484 L1208.5 484" clip-path="url(#clipPath2)"/>
      <path fill="white" d="M1223.5 484 L1207.5 478 L1207.5 490 Z" clip-path="url(#clipPath2)" stroke="none"/>
      <path fill="none" d="M1223.5 484 L1207.5 478 L1207.5 490 Z" clip-path="url(#clipPath2)"/>
      <path fill="none" d="M975.0116 304 L1066 304 L1066 394 L1208.5 394" clip-path="url(#clipPath2)"/>
      <path fill="white" d="M1223.5 394 L1207.5 388 L1207.5 400 Z" clip-path="url(#clipPath2)" stroke="none"/>
      <path fill="none" d="M1223.5 394 L1207.5 388 L1207.5 400 Z" clip-path="url(#clipPath2)"/>
      <path fill="none" d="M882.5 344.4736 L882.5 439" clip-path="url(#clipPath2)"/>
      <path fill="white" d="M882.5 454 L888.5 438 L876.5 438 Z" clip-path="url(#clipPath2)" stroke="none"/>
      <path fill="none" d="M882.5 454 L888.5 438 L876.5 438 Z" clip-path="url(#clipPath2)"/>
      <path fill="none" d="M882.5 514 L882.5 608.5337" clip-path="url(#clipPath2)"/>
      <path fill="white" d="M882.5 623.5337 L888.5 607.5337 L876.5 607.5337 Z" clip-path="url(#clipPath2)" stroke="none"/>
      <path fill="none" d="M882.5 623.5337 L888.5 607.5337 L876.5 607.5337 Z" clip-path="url(#clipPath2)"/>
      <path fill="none" d="M975.0082 664 L1302 664 L1302 529" clip-path="url(#clipPath2)"/>
      <path fill="white" d="M1302 514 L1296 530 L1308 530 Z" clip-path="url(#clipPath2)" stroke="none"/>
      <path fill="none" d="M1302 514 L1296 530 L1308 530 Z" clip-path="url(#clipPath2)"/>
      <text x="985.9281" xml:space="preserve" y="655.8339" clip-path="url(#clipPath2)" font-family="sans-serif" stroke="none">nein</text>
      <path fill="none" d="M789.9834 664 L408.5 664" clip-path="url(#clipPath2)"/>
      <path fill="white" d="M393.5 664 L409.5 670 L409.5 658 Z" clip-path="url(#clipPath2)" stroke="none"/>
      <path fill="none" d="M393.5 664 L409.5 670 L409.5 658 Z" clip-path="url(#clipPath2)"/>
      <text x="770.1201" xml:space="preserve" y="652.7939" clip-path="url(#clipPath2)" font-family="sans-serif" stroke="none">ja</text>
      <path fill="none" d="M1302 274 L1302 193.0433 L608.1 193.0433 L608.1 552 L408.5 552" clip-path="url(#clipPath2)"/>
      <path fill="white" d="M393.5 552 L409.5 558 L409.5 546 Z" clip-path="url(#clipPath2)" stroke="none"/>
      <path fill="none" d="M393.5 552 L409.5 558 L409.5 546 Z" clip-path="url(#clipPath2)"/>
      <path fill="none" d="M236.5 664 L227.75 664" clip-path="url(#clipPath2)"/>
      <path fill="white" d="M212.75 664 L228.75 670 L228.75 658 Z" clip-path="url(#clipPath2)" stroke="none"/>
      <path fill="none" d="M212.75 664 L228.75 670 L228.75 658 Z" clip-path="url(#clipPath2)"/>
      <path fill="none" d="M134.25 694 L134.25 730.5625 L1189.4375 730.5625 L1208.5 730.5625" clip-path="url(#clipPath2)"/>
      <path fill="white" d="M1223.5 730.5625 L1207.5 724.5625 L1207.5 736.5625 Z" clip-path="url(#clipPath2)" stroke="none"/>
      <path fill="none" d="M1223.5 730.5625 L1207.5 724.5625 L1207.5 736.5625 Z" clip-path="url(#clipPath2)"/>
      <path fill="none" d="M236.5 552 L227.75 552" clip-path="url(#clipPath2)"/>
      <path fill="white" d="M212.75 552 L228.75 558 L228.75 546 Z" clip-path="url(#clipPath2)" stroke="none"/>
      <path fill="none" d="M212.75 552 L228.75 558 L228.75 546 Z" clip-path="url(#clipPath2)"/>
      <path fill="none" d="M134.25 522 L134.25 437.625 L467.75 437.625 L467.75 304 L774.9868 304" clip-path="url(#clipPath2)"/>
      <path fill="white" d="M789.9868 304 L773.9868 298 L773.9868 310 Z" clip-path="url(#clipPath2)" stroke="none"/>
      <path fill="none" d="M789.9868 304 L773.9868 298 L773.9868 310 Z" clip-path="url(#clipPath2)"/>
      <path fill="none" d="M1302 760.5625 L1302 775.5625" clip-path="url(#clipPath2)"/>
      <path fill="white" d="M1302 790.5625 L1308 774.5625 L1296 774.5625 Z" clip-path="url(#clipPath2)" stroke="none"/>
      <path fill="none" d="M1302 790.5625 L1308 774.5625 L1296 774.5625 Z" clip-path="url(#clipPath2)"/>
      <path fill="none" d="M1223.5 820.5625 L408.5 820.5625" clip-path="url(#clipPath2)"/>
      <path fill="white" d="M393.5 820.5625 L409.5 826.5625 L409.5 814.5625 Z" clip-path="url(#clipPath2)" stroke="none"/>
      <path fill="none" d="M393.5 820.5625 L409.5 826.5625 L409.5 814.5625 Z" clip-path="url(#clipPath2)"/>
      <path fill="none" d="M236.5 820.5625 L58.7682 820.5625" clip-path="url(#clipPath2)"/>
      <path fill="white" d="M43.7682 820.5625 L59.7682 826.5625 L59.7682 814.5625 Z" clip-path="url(#clipPath2)" stroke="none"/>
      <path fill="none" d="M43.7682 820.5625 L59.7682 826.5625 L59.7682 814.5625 Z" clip-path="url(#clipPath2)"/>
      <path fill="none" d="M-48.75 780.084 L-48.75 664 L40.75 664" clip-path="url(#clipPath2)"/>
      <path fill="white" d="M55.75 664 L39.75 658 L39.75 670 Z" clip-path="url(#clipPath2)" stroke="none"/>
      <path fill="none" d="M55.75 664 L39.75 658 L39.75 670 Z" clip-path="url(#clipPath2)"/>
      <text x="-33.9035" xml:space="preserve" y="757.3298" clip-path="url(#clipPath2)" font-family="sans-serif" stroke="none">neuer Begriff</text>
      <path fill="none" d="M-141.2206 820.5625 L-186.6311 820.5625 L-186.6311 177.9858 L467.75 177.9858 L467.75 304 L774.9584 304" clip-path="url(#clipPath2)"/>
      <path fill="white" d="M789.9584 304 L773.9584 298 L773.9584 310 Z" clip-path="url(#clipPath2)" stroke="none"/>
      <path fill="none" d="M789.9584 304 L773.9584 298 L773.9584 310 Z" clip-path="url(#clipPath2)"/>
      <text x="412.5198" xml:space="preserve" y="307.7764" clip-path="url(#clipPath2)" font-family="sans-serif" stroke="none">redirect</text>
      <path fill="none" d="M1380.5 484 L1427.7375 484 L1427.7375 484 L1427.7375 962.375 L408.5 962.375" clip-path="url(#clipPath2)"/>
      <path fill="white" d="M393.5 962.375 L409.5 968.375 L409.5 956.375 Z" clip-path="url(#clipPath2)" stroke="none"/>
      <path fill="none" d="M393.5 962.375 L409.5 968.375 L409.5 956.375 Z" clip-path="url(#clipPath2)"/>
      <path fill="none" d="M236.5 962.375 L221.5 962.375" clip-path="url(#clipPath2)"/>
      <path fill="white" d="M206.5 962.375 L222.5 968.375 L222.5 956.375 Z" clip-path="url(#clipPath2)" stroke="none"/>
      <path fill="none" d="M206.5 962.375 L222.5 968.375 L222.5 956.375 Z" clip-path="url(#clipPath2)"/>
      <path fill="none" d="M128 992.375 L128 1052.375 L803 1052.375" clip-path="url(#clipPath2)"/>
      <path fill="white" d="M818 1052.375 L802 1046.375 L802 1058.375 Z" clip-path="url(#clipPath2)" stroke="none"/>
      <path fill="none" d="M818 1052.375 L802 1046.375 L802 1058.375 Z" clip-path="url(#clipPath2)"/>
      <path fill="none" d="M975 1052.375 L1076.9998 1052.375" clip-path="url(#clipPath2)"/>
      <path fill="white" d="M1091.9998 1052.375 L1075.9998 1046.375 L1075.9998 1058.375 Z" clip-path="url(#clipPath2)" stroke="none"/>
      <path fill="none" d="M1091.9998 1052.375 L1075.9998 1046.375 L1075.9998 1058.375 Z" clip-path="url(#clipPath2)"/>
      <path fill="none" d="M1184.5 1011.9014 L1184.5 962.375 L408.5 962.375" clip-path="url(#clipPath2)"/>
      <path fill="white" d="M393.5 962.375 L409.5 968.375 L409.5 956.375 Z" clip-path="url(#clipPath2)" stroke="none"/>
      <path fill="none" d="M393.5 962.375 L409.5 968.375 L409.5 956.375 Z" clip-path="url(#clipPath2)"/>
      <text x="1198.1562" xml:space="preserve" y="1003.2383" clip-path="url(#clipPath2)" font-family="sans-serif" stroke="none">nein</text>
      <path fill="none" d="M1277.0338 1052.375 L1473.9375 1052.375 L1473.9375 304 L1395.5 304" clip-path="url(#clipPath2)"/>
      <path fill="white" d="M1380.5 304 L1396.5 310 L1396.5 298 Z" clip-path="url(#clipPath2)" stroke="none"/>
      <path fill="none" d="M1380.5 304 L1396.5 310 L1396.5 298 Z" clip-path="url(#clipPath2)"/>
      <text x="1283.8337" xml:space="preserve" y="1045.4889" clip-path="url(#clipPath2)" font-family="sans-serif" stroke="none">ja</text>
      <path fill="none" d="M1380.5 394 L1498.9375 394 L1498.9375 1156.5 L408.5 1156.5" clip-path="url(#clipPath2)"/>
      <path fill="white" d="M393.5 1156.5 L409.5 1162.5 L409.5 1150.5 Z" clip-path="url(#clipPath2)" stroke="none"/>
      <path fill="none" d="M393.5 1156.5 L409.5 1162.5 L409.5 1150.5 Z" clip-path="url(#clipPath2)"/>
      <path fill="none" d="M236.5 1156.5 L221.5 1156.5" clip-path="url(#clipPath2)"/>
      <path fill="white" d="M206.5 1156.5 L222.5 1162.5 L222.5 1150.5 Z" clip-path="url(#clipPath2)" stroke="none"/>
      <path fill="none" d="M206.5 1156.5 L222.5 1162.5 L222.5 1150.5 Z" clip-path="url(#clipPath2)"/>
      <path fill="none" d="M128 1186.5 L128 1246.5 L803 1246.5" clip-path="url(#clipPath2)"/>
      <path fill="white" d="M818 1246.5 L802 1240.5 L802 1252.5 Z" clip-path="url(#clipPath2)" stroke="none"/>
      <path fill="none" d="M818 1246.5 L802 1240.5 L802 1252.5 Z" clip-path="url(#clipPath2)"/>
      <path fill="none" d="M975 1246.5 L1076.9998 1246.5" clip-path="url(#clipPath2)"/>
      <path fill="white" d="M1091.9998 1246.5 L1075.9998 1240.5 L1075.9998 1252.5 Z" clip-path="url(#clipPath2)" stroke="none"/>
      <path fill="none" d="M1091.9998 1246.5 L1075.9998 1240.5 L1075.9998 1252.5 Z" clip-path="url(#clipPath2)"/>
      <path fill="none" d="M1184.5 1206.0264 L1184.5 1156.5 L408.5 1156.5" clip-path="url(#clipPath2)"/>
      <path fill="white" d="M393.5 1156.5 L409.5 1162.5 L409.5 1150.5 Z" clip-path="url(#clipPath2)" stroke="none"/>
      <path fill="none" d="M393.5 1156.5 L409.5 1162.5 L409.5 1150.5 Z" clip-path="url(#clipPath2)"/>
      <text x="1198.1562" xml:space="preserve" y="1197.3633" clip-path="url(#clipPath2)" font-family="sans-serif" stroke="none">nein</text>
      <path fill="none" d="M1276.9847 1246.5 L1356 1246.5" clip-path="url(#clipPath2)"/>
      <path fill="white" d="M1371 1246.5 L1355 1240.5 L1355 1252.5 Z" clip-path="url(#clipPath2)" stroke="none"/>
      <path fill="none" d="M1371 1246.5 L1355 1240.5 L1355 1252.5 Z" clip-path="url(#clipPath2)"/>
      <text x="1303.9701" xml:space="preserve" y="1238.2058" clip-path="url(#clipPath2)" font-family="sans-serif" stroke="none">ja</text>
      <path fill="none" d="M1528 1246.5 L1569.0081 1246.5 L1569.0081 304 L1395.5116 304" clip-path="url(#clipPath2)"/>
      <path fill="white" d="M1380.5116 304 L1396.5116 310 L1396.5116 298 Z" clip-path="url(#clipPath2)" stroke="none"/>
      <path fill="none" d="M1380.5116 304 L1396.5116 310 L1396.5116 298 Z" clip-path="url(#clipPath2)"/>
    </g>
  </g>
</svg>
